<?xml version="1.0" encoding="utf-8"?>
<!-- Generator: Adobe Illustrator 15.0.0, SVG Export Plug-In . SVG Version: 6.00 Build 0)  -->
<!DOCTYPE svg PUBLIC "-//W3C//DTD SVG 1.1//EN" "http://www.w3.org/Graphics/SVG/1.1/DTD/svg11.dtd">
<svg version="1.1" id="Layer_1" xmlns="http://www.w3.org/2000/svg" xmlns:xlink="http://www.w3.org/1999/xlink" x="0px" y="0px"
	 width="400px" height="400px" viewBox="0 0 400 400" enable-background="new 0 0 400 400" xml:space="preserve">
<rect x="0.234" y="0.77" fill="#F1F0EE" width="399.766" height="398.71"/>
<g>
	<circle fill="#D5D5D5" cx="202.152" cy="200.589" r="25.395"/>
	<path fill="#D5D5D5" d="M239.781,160.625l-7.256-19h-58.693l-7.719,19h-10.996v-9.5h-16v13.489l-11,3.511v74.5h144v-82H239.781z
		 M202.152,237.625c-20.454,0-37.035-16.582-37.035-37.036s16.581-37.035,37.035-37.035c20.455,0,37.036,16.581,37.036,37.035
		S222.607,237.625,202.152,237.625z"/>
</g>
<polygon fill="#D5D5D5" points="3.559,2.885 2.877,2.885 2.877,3.617 128.261,129 129.675,129 "/>
<polygon fill="#D5D5D5" points="397.357,3.592 397.357,2.885 396.65,2.885 270.535,129 271.949,129 "/>
<polygon fill="#D5D5D5" points="396.676,397.365 397.357,397.365 397.357,396.633 271.974,271.25 270.56,271.25 "/>
<polygon fill="#D5D5D5" points="2.877,396.658 2.877,397.365 3.584,397.365 129.699,271.25 128.285,271.25 "/>
<rect x="208.788" y="182.984" transform="matrix(0.9232 0.3844 -0.3844 0.9232 87.7182 -68.5938)" fill="#D5D5D5" width="13.333" height="4.313"/>
<rect x="182.039" y="182.984" transform="matrix(-0.9232 0.3844 -0.3844 -0.9232 434.0778 283.5207)" fill="#D5D5D5" width="13.333" height="4.313"/>
</svg>
