<?xml version="1.0" encoding="utf-8"?>
<!-- Generator: Adobe Illustrator 13.0.1, SVG Export Plug-In . SVG Version: 6.00 Build 14948)  -->
<!DOCTYPE svg PUBLIC "-//W3C//DTD SVG 1.1//EN" "http://www.w3.org/Graphics/SVG/1.1/DTD/svg11.dtd">
<svg version="1.1" id="Lager_1" xmlns="http://www.w3.org/2000/svg" xmlns:xlink="http://www.w3.org/1999/xlink" x="0px" y="0px"
	 width="300px" height="300px" viewBox="0 0 300 300" enable-background="new 0 0 300 300" xml:space="preserve">
<rect x="0.117" y="0.625" fill="#F1F0EE" width="300" height="300"/>
<g>
	<ellipse fill="#D5D5D5" cx="151.644" cy="150.974" rx="19.058" ry="19.108"/>
	<path fill="#D5D5D5" d="M179.882,120.904l-5.445-14.296h-44.045l-5.793,14.296h-8.251v-7.148H104.34v10.149l-8.255,2.642v56.056
		h108.063v-61.699H179.882z M151.644,178.841c-15.35,0-27.792-12.477-27.792-27.866c0-15.391,12.442-27.866,27.792-27.866
		c15.351,0,27.793,12.476,27.793,27.866C179.437,166.364,166.994,178.841,151.644,178.841z"/>
</g>
<polygon fill="#D5D5D5" points="2.612,2.216 2.101,2.216 2.101,2.768 96.193,97.109 97.254,97.109 "/>
<polygon fill="#D5D5D5" points="298.133,2.749 298.133,2.216 297.603,2.216 202.961,97.109 204.022,97.109 "/>
<polygon fill="#D5D5D5" points="297.622,299.033 298.133,299.033 298.133,298.482 204.041,204.142 202.979,204.142 "/>
<polygon fill="#D5D5D5" points="2.101,298.502 2.101,299.033 2.631,299.033 97.273,204.142 96.211,204.142 "/>
<polygon fill="#D5D5D5" points="157.633,135.93 166.87,139.787 165.626,142.783 156.388,138.926 "/>
<polygon fill="#D5D5D5" points="146.787,138.917 137.55,142.774 136.306,139.778 145.543,135.922 "/>
</svg>
